<?xml version="1.0" encoding="utf-8"?><svg version="1.1" id="Layer_1" xmlns="http://www.w3.org/2000/svg" xmlns:xlink="http://www.w3.org/1999/xlink" x="0px" y="0px" viewBox="0 0 122.88 110.98" style="enable-background:new 0 0 122.88 110.98" xml:space="preserve"><g><path d="M3.54,84.57c0.94-1.12,1.97-2.02,3.09-2.76c2.25-1.49,4.79-2.28,7.67-2.81c0-25.14,0-50.27,0-75.41 C3.39,4.66,3.46,14.75,3.52,24.12c0.01,1.26,0.02,1.92,0.02,2.23V84.57L3.54,84.57z M42.98,25.55h19.44l1.51,0v1.51v71.53v1.51 h-1.51H42.98h-1.51v-1.51V27.06v-1.51L42.98,25.55L42.98,25.55z M46.91,91.58h4.04v2.11h-4.04V91.58L46.91,91.58z M46.91,85.64 h4.04v2.11h-4.04V85.64L46.91,85.64z M46.91,79.7h4.04v2.11h-4.04V79.7L46.91,79.7z M46.91,73.75h4.04v2.11h-4.04V73.75 L46.91,73.75z M46.91,67.81h6.71v2.11h-6.71V67.81L46.91,67.81z M46.91,61.87h4.04v2.11h-4.04V61.87L46.91,61.87z M46.91,55.92 h4.04v2.11h-4.04V55.92L46.91,55.92z M46.91,49.98h4.04v2.11h-4.04V49.98L46.91,49.98z M46.91,44.04h4.04v2.11h-4.04V44.04 L46.91,44.04z M46.91,38.09h4.04v2.11h-4.04V38.09L46.91,38.09z M46.91,32.15h6.71v2.11h-6.71V32.15L46.91,32.15z M60.91,28.56 H44.49v68.51h16.42V28.56L60.91,28.56z M91.96,40.51v58.56H78.09V40.51h-0.06l0.47-0.96l5.73-11.77l0.58-1.2l0.61,1.18l6.1,11.77 l0.51,0.98H91.96L91.96,40.51z M80.18,39.16h9.66l-3.84-7.4h-2.22L80.18,39.16L80.18,39.16z M17.8,14.33h102.23 c0.79,0,1.5,0.32,2.02,0.84c0.52,0.52,0.84,1.23,0.84,2.02v90.95c0,0.78-0.32,1.49-0.84,2.01l-0.01,0.01h0 c-0.52,0.52-1.23,0.84-2.01,0.84H15.73c-4.27,0-10.19-3.35-12.66-6.88c-2.42-3.44-3.29-7.86-3.03-13.01V26.35c0-1.79,0-1.98,0-2.22 C-0.04,12.67-0.12,0.28,15.85,0.01C15.92,0,15.98,0,16.05,0c0.97,0,1.75,0.78,1.75,1.75V14.33L17.8,14.33z M3.52,91.53 c-0.18,4.28,0.52,7.88,2.41,10.57c1.9,2.71,5.09,4.58,9.92,5.39h103.54V17.82H17.8v62.64h-0.01c0,0.85-0.61,1.59-1.48,1.72 c-3.04,0.47-5.64,1.13-7.76,2.53C6.53,86.05,4.86,88.15,3.52,91.53L3.52,91.53z"/></g></svg>